<?xml version="1.0" encoding="utf-8"?>
<!-- Generator: Adobe Illustrator 22.0.1, SVG Export Plug-In . SVG Version: 6.00 Build 0)  -->
<svg version="1.1" id="Layer_1" xmlns="http://www.w3.org/2000/svg" xmlns:xlink="http://www.w3.org/1999/xlink" x="0px" y="0px"
	 viewBox="0 0 216 216" style="enable-background:new 0 0 216 216;" xml:space="preserve">
<style type="text/css">
	.st0{fill:#254D7C;}
	.st1{fill:#FFFFFF;}
</style>
<circle class="st0" cx="108" cy="107.7" r="89.9"/>
<g>
	<path class="st1" d="M56.6,114.6l12.8,4.8c1,0.4,1.5,1.1,1.5,2.2c0,1.5-0.8,2.3-2.3,2.3c-0.3,0-0.6,0-0.8-0.1l-18.6-7
		c-1-0.4-1.5-1.1-1.5-2.2c0-1.1,0.5-1.8,1.5-2.2l18.6-7c0.3-0.1,0.5-0.1,0.8-0.1c1.5,0,2.3,0.8,2.3,2.3c0,1.1-0.5,1.8-1.5,2.2
		L56.6,114.6z"/>
	<path class="st1" d="M91.8,107.7h-4.6c-1.5,0-2.3-0.8-2.3-2.3s0.8-2.3,2.3-2.3h4.6c1.9,0,3.6-0.7,4.9-2c1.3-1.3,2-3,2-4.9
		c0-1.9-0.7-3.6-2-4.9c-1.4-1.4-3-2-4.9-2h-9.3c-1.5,0-2.3-0.8-2.3-2.3s0.8-2.3,2.3-2.3h9.3c3.2,0,5.9,1.1,8.2,3.4
		c2.3,2.3,3.4,5,3.4,8.2c0,3.8-1.5,6.9-4.6,9.3c3.1,2.3,4.6,5.4,4.6,9.3v4.6c0,3.2-1.1,5.9-3.4,8.2c-2.3,2.3-5,3.4-8.2,3.4h-9.3
		c-1.5,0-2.3-0.8-2.3-2.3c0-1.5,0.8-2.3,2.3-2.3h9.3c1.9,0,3.6-0.7,4.9-2c1.3-1.3,2-3,2-4.9v-4.6c0-1.9-0.7-3.6-2-4.9
		C95.3,108.3,93.7,107.7,91.8,107.7z"/>
	<path class="st1" d="M112.6,107.7c0-1.7,0.4-3.2,1.2-4.7c1.8-3.1,4.4-4.6,8.1-4.6h9.3V86.8c0-1.5,0.8-2.3,2.3-2.3s2.3,0.8,2.3,2.3
		v41.8c0,1.5-0.8,2.3-2.3,2.3h-11.6c-2.6,0-4.8-0.9-6.6-2.7c-1.8-1.8-2.7-4-2.7-6.6V107.7z M121.9,103c-1.3,0-2.4,0.5-3.3,1.4
		c-0.9,0.9-1.4,2-1.4,3.3v13.9c0,1.3,0.5,2.4,1.4,3.3s2,1.4,3.3,1.4h9.3V103H121.9z"/>
	<path class="st1" d="M159.4,114.6l-12.8-4.8c-1-0.4-1.5-1.1-1.5-2.2c0-1.5,0.8-2.3,2.3-2.3c0.3,0,0.5,0,0.8,0.1l18.6,7
		c1,0.4,1.5,1.1,1.5,2.2c0,1.1-0.5,1.8-1.5,2.2l-18.6,7c-0.3,0.1-0.5,0.1-0.8,0.1c-0.6,0-1.2-0.2-1.6-0.7s-0.7-1-0.7-1.6
		c0-1.1,0.5-1.8,1.5-2.2L159.4,114.6z"/>
</g>
</svg>
