<?xml version="1.0" encoding="utf-8"?>
<!-- Generator: Adobe Illustrator 22.0.1, SVG Export Plug-In . SVG Version: 6.00 Build 0)  -->
<svg version="1.1" id="Layer_1" xmlns="http://www.w3.org/2000/svg" xmlns:xlink="http://www.w3.org/1999/xlink" x="0px" y="0px"
	 viewBox="0 0 216 216" style="enable-background:new 0 0 216 216;" xml:space="preserve">
<style type="text/css">
	.st0{fill:#254D7C;}
	.st1{fill:#FFFFFF;}
	.st2{fill:url(#SVGID_1_);}
	.st3{fill:url(#SVGID_2_);}
</style>
<circle class="st0" cx="116.5" cy="111.3" r="89.9"/>
<path class="st1" d="M175.3,166.9h-31.7l-35-81.9l-22.7,53.4l45.4-0.2c0,0-29.1,19.6-40.6,25.4c-11.6,5.8-14.9,2.6-16.8,0.5
	c-1.9-2.1-12.7-23-14.3-26.3c-1.6-3.3-2.9-3.4,0-11.4c2.9-8.1,27.1-65.1,28.5-67.6c1.3-2.5,2.6-3.1,7.7-3.1c5.1,0,25.3,0,28.2,0
	c2.9,0,4.6,1,6,4C131.3,62.7,175.3,166.9,175.3,166.9z"/>
<linearGradient id="SVGID_1_" gradientUnits="userSpaceOnUse" x1="121.1341" y1="74.0747" x2="80.1341" y2="161.0747">
	<stop  offset="0" style="stop-color:#999B9E"/>
	<stop  offset="1" style="stop-color:#FFFFFF"/>
</linearGradient>
<path class="st2" d="M108.5,85l-22.7,53.4l45.4-0.2c0,0-29.1,19.6-40.6,25.4c-11.6,5.8-14.9,2.6-16.8,0.5
	c-1.9-2.1-12.7-23-14.3-26.3c-1.6-3.3-2.9-3.4,0-11.4c2.9-8.1,27.1-65.1,28.5-67.6c1.3-2.5,2.6-3.1,7.7-3.1c0.1,0,0.3,0,0.4,0
	L108.5,85z"/>
<path class="st1" d="M85.8,138.4l45.4-0.2c0,0-29.1,19.6-40.6,25.4c-11.6,5.8-14.9,2.6-16.8,0.5c-1.9-2.1-12.7-23-14.3-26.3
	L85.8,138.4z"/>
<linearGradient id="SVGID_2_" gradientUnits="userSpaceOnUse" x1="87.7046" y1="126.3673" x2="76.3938" y2="150.3684">
	<stop  offset="0" style="stop-color:#999B9E"/>
	<stop  offset="1" style="stop-color:#FFFFFF"/>
</linearGradient>
<polyline class="st3" points="116.8,138.3 59.8,138.5 47.3,138.5 "/>
</svg>
