<?xml version="1.0" encoding="utf-8"?>
<!-- Generator: Adobe Illustrator 22.0.1, SVG Export Plug-In . SVG Version: 6.00 Build 0)  -->
<svg version="1.1" id="Layer_1" xmlns="http://www.w3.org/2000/svg" xmlns:xlink="http://www.w3.org/1999/xlink" x="0px" y="0px"
	 viewBox="0 0 216 216" style="enable-background:new 0 0 216 216;" xml:space="preserve">
<style type="text/css">
	.st0{fill:#254D7C;}
	.st1{fill:#FFFFFF;}
</style>
<circle class="st0" cx="108" cy="108" r="89.9"/>
<g>
	<path class="st1" d="M43.7,122.4v2.1c0,1.4-0.7,2.1-2.1,2.1s-2.1-0.7-2.1-2.1v-2.2c-2.8-0.3-5.3-1.1-7.5-2.4
		c-0.7-0.4-1.1-1.1-1.1-1.9c0-1.4,0.7-2.2,2.2-2.2c0.3,0,0.7,0.1,1,0.3c2,1,3.7,1.6,5.3,1.8v-11.3l-4.2-2.4
		c-2.9-1.6-4.4-4.1-4.4-7.4c0-2.2,0.7-4.1,2.1-5.6c1.7-1.9,3.8-2.9,6.4-2.9v-2.1c0-1.4,0.7-2.1,2.1-2.1s2.1,0.7,2.1,2.1v2.3
		c2.7,0.3,5.2,1.2,7.5,2.5c0.7,0.4,1,1,1,1.8c0,0.6-0.2,1.1-0.6,1.5c-0.4,0.4-0.9,0.6-1.5,0.6c-0.4,0-0.7-0.1-1.1-0.3
		c-1.7-1-3.4-1.6-5.3-1.8v11.4l4.2,2.3c2.9,1.6,4.4,4.1,4.4,7.5c0,2.1-0.7,4-2.1,5.6C48.4,121.4,46.3,122.4,43.7,122.4z M39.4,101.7
		v-9.1c-1.2,0-2.2,0.4-3,1.2c-0.8,0.8-1.2,1.8-1.2,3c0,1.7,0.7,2.9,2.1,3.7L39.4,101.7z M43.7,118.1c1.2,0,2.2-0.4,3.1-1.2
		c0.8-0.8,1.3-1.8,1.3-3c0-1.7-0.7-2.9-2.1-3.6l-2.2-1.2L43.7,118.1z"/>
	<path class="st1" d="M91.3,105.4v12.8c0,2.4-0.8,4.4-2.5,6.1c-1.6,1.6-3.7,2.5-6.1,2.5H72.1c-1.4,0-2.1-0.7-2.1-2.1V86.2
		c0-1.4,0.7-2.1,2.1-2.1s2.1,0.7,2.1,2.1v10.7h8.5c3.3,0,5.8,1.4,7.4,4.2C90.9,102.4,91.3,103.8,91.3,105.4z M82.8,101.1h-8.5v21.3
		h8.5c1.2,0,2.2-0.4,3-1.2c0.8-0.8,1.2-1.8,1.2-3v-12.8c0-1.2-0.4-2.2-1.2-3C85,101.5,84,101.1,82.8,101.1z"/>
	<path class="st1" d="M108.3,126.7c-2.4,0-4.4-0.8-6.1-2.5c-1.6-1.6-2.5-3.7-2.5-6.1c0-1.5,0.4-3,1.1-4.3c1.6-2.8,4.1-4.2,7.4-4.2
		h8.5v-4.3c0-1.2-0.4-2.2-1.2-3c-0.8-0.8-1.8-1.2-3-1.2h-8.5c-1.4,0-2.1-0.7-2.1-2.1c0-1.4,0.7-2.1,2.1-2.1h8.5
		c2.4,0,4.4,0.8,6.1,2.5c1.6,1.6,2.5,3.7,2.5,6.1v19.2c0,1.4-0.7,2.1-2.1,2.1H108.3z M116.9,113.9h-8.5c-1.2,0-2.2,0.4-3,1.2
		c-0.8,0.8-1.2,1.8-1.2,3c0,1.2,0.4,2.2,1.3,3c0.8,0.8,1.8,1.3,3,1.3h8.5V113.9z"/>
	<path class="st1" d="M146.7,119.2c0-1.4-0.6-2.3-1.8-2.9l-10.9-5.3c-2.9-1.4-4.3-3.6-4.3-6.7c0-2.5,1-4.3,3-5.7
		c1.7-1.2,3.9-1.7,6.5-1.7c3.2,0,6,0.8,8.5,2.4c0.8,0.5,1.1,1.1,1.1,1.9c0,0.6-0.2,1.1-0.6,1.5c-0.4,0.4-0.9,0.6-1.5,0.6
		c-0.4,0-0.7-0.1-1-0.3c-2-1.2-4.2-1.8-6.5-1.8c-3.5,0-5.3,1.1-5.3,3.2c0,1.3,0.6,2.3,1.7,2.8l11,5.3c2.8,1.4,4.3,3.6,4.3,6.7
		c0,2.6-1,4.5-3.1,5.8c-1.7,1.1-4,1.6-6.7,1.6c-4.1,0-7.5-0.8-10.3-2.4c-0.8-0.5-1.2-1.1-1.2-1.9c0-0.6,0.2-1.1,0.6-1.5
		c0.4-0.4,0.9-0.6,1.5-0.6c0.3,0,0.5,0.1,0.8,0.2c0.7,0.3,1.7,0.7,3,1.2c1.9,0.5,3.8,0.8,5.6,0.8
		C144.9,122.4,146.7,121.3,146.7,119.2z"/>
	<path class="st1" d="M159.5,86.2c0-1.4,0.7-2.1,2.1-2.1c1.4,0,2.1,0.7,2.1,2.1v10.7h8.5c2.3,0,4.4,0.8,6,2.5
		c1.7,1.6,2.5,3.6,2.5,5.9v19.3c0,1.4-0.7,2.1-2.1,2.1s-2.1-0.7-2.1-2.1v-19.2c0-1.2-0.4-2.2-1.2-3c-0.8-0.8-1.8-1.2-3-1.2h-8.5
		v23.4c0,1.4-0.7,2.1-2.1,2.1c-1.4,0-2.1-0.7-2.1-2.1V86.2z"/>
</g>
</svg>
