<?xml version="1.0" encoding="utf-8"?>
<!-- Generator: Adobe Illustrator 22.0.1, SVG Export Plug-In . SVG Version: 6.00 Build 0)  -->
<svg version="1.1" id="Layer_1" xmlns="http://www.w3.org/2000/svg" xmlns:xlink="http://www.w3.org/1999/xlink" x="0px" y="0px"
	 viewBox="0 0 216 216" style="enable-background:new 0 0 216 216;" xml:space="preserve">
<style type="text/css">
	.st0{fill:#254D7C;}
	.st1{fill:#FFFFFF;}
</style>
<circle class="st0" cx="108" cy="108" r="89.9"/>
<g>
	<path class="st1" d="M35.7,115l12.8,4.8c1,0.4,1.5,1.1,1.5,2.2c0,1.5-0.8,2.3-2.3,2.3c-0.3,0-0.6,0-0.8-0.1l-18.6-7
		c-1-0.4-1.5-1.1-1.5-2.2c0-1.1,0.5-1.8,1.5-2.2l18.6-7c0.3-0.1,0.5-0.1,0.8-0.1c1.5,0,2.3,0.8,2.3,2.3c0,1.1-0.5,1.8-1.5,2.2
		L35.7,115z"/>
	<path class="st1" d="M82.5,131.2c-1.1,0-1.8-0.6-2.3-1.7l-4.7-12.6l-4.7,12.6c-0.4,1.2-1.2,1.8-2.3,1.8c-1.2,0-2-0.7-2.4-2.2
		l-6.9-27.4c0-0.2-0.1-0.4-0.1-0.7c0-1.5,0.8-2.2,2.3-2.2c1.2,0,2,0.6,2.3,1.8L69,121l4.3-11.5c0.4-1,1.1-1.5,2.2-1.5
		c1.1,0,1.8,0.5,2.2,1.5l4.3,11.6l5.2-20.6c0.3-1.2,1.1-1.8,2.3-1.8c0.6,0,1.1,0.2,1.6,0.7c0.5,0.4,0.7,1,0.7,1.6
		c0,0.3,0,0.5-0.1,0.7l-6.9,27.6C84.5,130.5,83.7,131.2,82.5,131.2z"/>
	<path class="st1" d="M105.7,117.3v4.6c0,1.3,0.5,2.4,1.4,3.3s2,1.4,3.3,1.4h11.6c1.5,0,2.3,0.8,2.3,2.3s-0.8,2.3-2.3,2.3h-11.6
		c-2.6,0-4.8-0.9-6.6-2.7s-2.7-4-2.7-6.6v-11.6c0-3.2,1.1-5.9,3.4-8.2c2.3-2.3,5-3.4,8.2-3.4c3.3,0,6,1.1,8.2,3.4
		c2.2,2.2,3.4,5,3.4,8.2v7H105.7z M112.6,103.4c-1.9,0-3.6,0.7-4.9,2c-1.4,1.4-2,3-2,4.9v2.3h13.9v-2.3c0-1.9-0.7-3.6-2-4.9
		C116.2,104,114.6,103.4,112.6,103.4z"/>
	<path class="st1" d="M156.7,108v13.9c0,2.6-0.9,4.8-2.7,6.6s-4,2.7-6.6,2.7h-11.6c-1.5,0-2.3-0.8-2.3-2.3V87.1
		c0-1.5,0.8-2.3,2.3-2.3s2.3,0.8,2.3,2.3v11.6h9.3c3.6,0,6.3,1.5,8.1,4.6C156.3,104.8,156.7,106.3,156.7,108z M147.4,103.4h-9.3
		v23.2h9.3c1.3,0,2.4-0.5,3.3-1.4c0.9-0.9,1.4-2,1.4-3.3V108c0-1.3-0.4-2.4-1.3-3.3C149.9,103.8,148.8,103.4,147.4,103.4z"/>
	<path class="st1" d="M180.3,115l-12.8-4.8c-1-0.4-1.5-1.1-1.5-2.2c0-1.5,0.8-2.3,2.3-2.3c0.3,0,0.5,0,0.8,0.1l18.6,7
		c1,0.4,1.5,1.1,1.5,2.2c0,1.1-0.5,1.8-1.5,2.2l-18.6,7c-0.3,0.1-0.5,0.1-0.8,0.1c-0.6,0-1.2-0.2-1.6-0.7s-0.7-1-0.7-1.6
		c0-1.1,0.5-1.8,1.5-2.2L180.3,115z"/>
</g>
</svg>
